{"title":"Boss Ganpati Mix - Boss - Akshay Kumar - HD 1080P - By Palash.mp","uid":8909396,"size":88853623,"categoryP":"video","categoryS":"music_videos","magnet":"?xt=urn:btih:154865204678318ded1c872cb2f3c482d64e127c&amp;dn=Boss+Ganpati+Mix+-+Boss+-+Akshay+Kumar+-+HD+1080P+-+By+Palash.mp&amp;tr=udp%3A%2F%2Ftracker.openbittorrent.com%3A80&amp;tr=udp%3A%2F%2Fopen.demonii.com%3A1337&amp;tr=udp%3A%2F%2Ftracker.coppersurfer.tk%3A6969&amp;tr=udp%3A%2F%2Fexodus.desync.com%3A6969","seeders":1,"leechers":0,"uploader":"Palash995","files":1,"time":1378981934,"description":"Song: BOSS GANPATI MIX\nSinger: MEET BROS ANJJAN\nMusic Director: MEET BROS ANJJAN\nLyrics: KUMAAR\nMovie; BOSS \nMusic Label: T-SERIES\n\nMedia Info:-\n\nGeneral\nComplete name : Boss Ganpati Mix - Boss - Akshay Kumar - HD 1080P - By Palash.mp4\nFormat : MPEG-4\nFormat profile : Base Media / Version 2\nCodec ID : mp42\nFile size : 84.7 MiB\nDuration : 2mn 10s\nOverall bit rate mode : Variable\nOverall bit rate : 5 468 Kbps\nEncoded date : UTC 2013-09-10 13:23:22\nTagged date : UTC 2013-09-10 13:23:22\ngsst : 0\ngstd : 130053\ngssd : BB64FFB44HH1378928489172753\n\nVideo\nID : 1\nFormat : AVC\nFormat/Info : Advanced Video Codec\nFormat profile : &lt;a class=&quot;__cf_email__&quot; href=&quot;/cdn-cgi/l/email-protection&quot; data-cfemail=&quot;4d05242a250d0179637d&quot;&gt;[email&amp;#160;protected]&lt;/a&gt;&lt;script cf-hash='f9e31' type=&quot;text/javascript&quot;&gt;\n/* &lt;![CDATA[ */!function(){try{var t=&quot;currentScript&quot;in document?document.currentScript:function(){for(var t=document.getElementsByTagName(&quot;script&quot;),e=t.length;e--;)if(t[e].getAttribute(&quot;cf-hash&quot;))return t[e]}();if(t&amp;&amp;t.previousSibling){var e,r,n,i,c=t.previousSibling,a=c.getAttribute(&quot;data-cfemail&quot;);if(a){for(e=&quot;&quot;,r=parseInt(a.substr(0,2),16),n=2;a.length-n;n+=2)i=parseInt(a.substr(n,2),16)^r,e+=String.fromCharCode(i);e=document.createTextNode(e),c.parentNode.replaceChild(e,c)}}}catch(u){}}();/* ]]&gt; */&lt;/script&gt;\nFormat settings, CABAC : Yes\nFormat settings, ReFrames : 1 frame\nCodec ID : avc1\nCodec ID/Info : Advanced Video Coding\nDuration : 2mn 10s\nBit rate : 5 273 Kbps\nMaximum bit rate : 15.7 Mbps\nWidth : 1 920 pixels\nHeight : 1 080 pixels\nDisplay aspect ratio : 16:9\nFrame rate mode : Constant\nFrame rate : 23.976 fps\nColor space : YUV\nChroma subsampling : 4:2:0\nBit depth : 8 bits\nScan type : Progressive\nBits/(Pixel*Frame) : 0.106\nStream size : 81.7 MiB (96%)\nTagged date : UTC 2013-09-10 13:23:26\n\nAudio\nID : 2\nFormat : AAC\nFormat/Info : Advanced Audio Codec\nFormat profile : LC\nCodec ID : 40\nDuration : 2mn 10s\nBit rate mode : Variable\nBit rate : 192 Kbps\nMaximum bit rate : 203 Kbps\nChannel(s) : 2 channels\nChannel positions : Front: L R\nSampling rate : 44.1 KHz\nCompression mode : Lossy\nStream size : 2.98 MiB (4%)\nTitle : IsoMedia File Produced by Google, 5-11-2011\nEncoded date : UTC 2013-09-10 13:23:25\nTagged date : UTC 2013-09-10 13:23:26\n\nScreenshots:-\n &lt;a href=&quot;\nhttps://yuq.me/users/26/528/eYTAlzxpi4t.png&quot; rel=&quot;nofollow&quot; target=&quot;_NEW&quot;&gt;\nhttps://yuq.me/users/26/528/eYTAlzxpi4t.png&lt;/a&gt;\n &lt;a href=&quot;\nhttps://yuq.me/users/26/528/fSnhv4Cetdt.png&quot; rel=&quot;nofollow&quot; target=&quot;_NEW&quot;&gt;\nhttps://yuq.me/users/26/528/fSnhv4Cetdt.png&lt;/a&gt;\n &lt;a href=&quot;\nhttps://yuq.me/users/26/528/m5Hzhf7jGtt.png&quot; rel=&quot;nofollow&quot; target=&quot;_NEW&quot;&gt;\nhttps://yuq.me/users/26/528/m5Hzhf7jGtt.png&lt;/a&gt;\n &lt;a href=&quot;\nhttps://yuq.me/users/26/528/I3ZGxcLa4mt.gif&quot; rel=&quot;nofollow&quot; target=&quot;_NEW&quot;&gt;\nhttps://yuq.me/users/26/528/I3ZGxcLa4mt.gif&lt;/a&gt;\n &lt;a href=&quot;\nhttps://yuq.me/users/26/528/peGatb2Nv7t.gif&quot; rel=&quot;nofollow&quot; target=&quot;_NEW&quot;&gt;\nhttps://yuq.me/users/26/528/peGatb2Nv7t.gif&lt;/a&gt;\n &lt;a href=&quot;\nhttps://yuq.me/users/26/528/yaCX9PIV5Gt.png&quot; rel=&quot;nofollow&quot; target=&quot;_NEW&quot;&gt;\nhttps://yuq.me/users/26/528/yaCX9PIV5Gt.png&lt;/a&gt;","torrent":{"xt":"urn:btih:154865204678318ded1c872cb2f3c482d64e127c","amp;dn":"Boss+Ganpati+Mix+-+Boss+-+Akshay+Kumar+-+HD+1080P+-+By+Palash.mp","amp;tr":["udp%3A%2F%2Ftracker.openbittorrent.com%3A80","udp%3A%2F%2Fopen.demonii.com%3A1337","udp%3A%2F%2Ftracker.coppersurfer.tk%3A6969","udp%3A%2F%2Fexodus.desync.com%3A6969"],"infoHash":"154865204678318ded1c872cb2f3c482d64e127c","infoHashBuffer":{"type":"Buffer","data":[21,72,101,32,70,120,49,141,237,28,135,44,178,243,196,130,214,78,18,124]},"announce":[],"urlList":[]}}